<?xml version="1.0" standalone="no"?>
<!DOCTYPE svg PUBLIC "-//W3C//DTD SVG 20010904//EN"
 "http://www.w3.org/TR/2001/REC-SVG-20010904/DTD/svg10.dtd">
<svg version="1.0" xmlns="http://www.w3.org/2000/svg"
 width="247.000000pt" height="241.000000pt" viewBox="0 0 247.000000 241.000000"
 preserveAspectRatio="xMidYMid meet">
<metadata>
Created by potrace 1.10, written by Peter Selinger 2001-2011
</metadata>
<g transform="translate(0.000000,241.000000) scale(0.100000,-0.100000)"
fill="#000000" stroke="none">
<path d="M1139 2241 c-16 -16 -29 -39 -29 -50 0 -17 -15 -25 -86 -47 -77 -23
-87 -24 -102 -11 -33 30 -70 38 -107 23 -49 -21 -69 -57 -61 -112 5 -43 3 -48
-42 -104 -38 -47 -53 -59 -77 -59 -16 -1 -35 -5 -42 -9 -21 -13 -33 -60 -23
-86 11 -30 52 -59 72 -51 11 4 25 -10 47 -46 32 -51 32 -52 15 -87 -38 -81 30
-159 118 -133 47 15 73 52 72 104 -2 52 -30 79 -90 87 -43 5 -50 9 -74 50 -23
39 -26 52 -21 98 5 42 15 63 50 107 37 47 49 55 77 55 18 0 44 5 57 11 25 11
57 57 57 81 0 9 31 24 86 40 l85 26 24 -24 c63 -63 180 7 160 96 -16 71 -112
95 -166 41z m109 -17 c31 -22 29 -67 -4 -93 -33 -26 -39 -26 -80 -1 -30 19
-32 23 -22 51 11 31 43 59 68 59 9 0 26 -7 38 -16z m-336 -124 c16 -19 16 -22
0 -50 -19 -33 -50 -50 -92 -50 -31 0 -34 5 -32 65 1 62 82 84 124 35z m-232
-280 c0 -33 -12 -50 -34 -50 -45 0 -59 37 -26 70 16 16 25 18 40 10 11 -6 20
-19 20 -30z m158 -206 c46 -32 17 -114 -40 -114 -58 0 -82 43 -58 104 8 21 16
26 43 26 18 0 43 -7 55 -16z" fill="#00BFA6"/>
<path d="M1441 2199 c-25 -24 -41 -59 -41 -94 0 -27 45 -85 66 -85 11 0 14
-25 14 -135 0 -110 -3 -135 -14 -135 -21 0 -66 -58 -66 -85 0 -67 58 -113 125
-101 28 6 35 2 72 -44 40 -49 41 -51 26 -81 -30 -60 8 -140 73 -158 50 -14
102 5 131 48 59 87 -7 190 -114 178 -42 -4 -45 -3 -84 44 -39 47 -40 50 -29
84 17 52 -7 107 -54 124 -17 7 -19 19 -19 136 0 128 0 128 27 142 60 31 71
122 19 163 -35 27 -102 27 -132 -1z m107 -25 c32 -22 29 -68 -7 -105 -35 -35
-51 -36 -78 -6 -29 33 -33 50 -16 85 21 42 62 53 101 26z m0 -457 c22 -20 27
-51 16 -94 -5 -20 -13 -23 -55 -23 -38 0 -51 4 -63 22 -23 32 -20 43 20 88 37
41 43 41 82 7z m223 -250 c8 -6 23 -24 33 -38 49 -76 -65 -159 -129 -94 -31
30 -34 96 -7 123 21 21 81 27 103 9z" fill="#00BFA6"/>
<path d="M1700 2010 c-37 -37 -22 -100 28 -118 22 -7 33 -23 53 -74 22 -56 24
-67 12 -83 -32 -44 1 -108 55 -108 69 0 99 80 46 122 -15 12 -32 21 -38 21 -7
0 -23 31 -36 70 -19 55 -22 72 -12 82 19 19 14 66 -8 88 -11 11 -33 20 -50 20
-17 0 -39 -9 -50 -20z m78 -58 c-4 -33 -34 -36 -55 -6 -12 19 -12 24 2 38 24
24 57 4 53 -32z m96 -231 c27 -29 -1 -69 -39 -55 -15 6 -21 55 -8 67 11 12 29
8 47 -12z" fill="#00BFA6"/>
<path d="M1250 1960 c-29 -29 -26 -74 7 -100 64 -50 145 30 97 98 -20 29 -76
30 -104 2z m64 -16 c23 -9 20 -51 -4 -59 -11 -3 -24 -3 -30 0 -14 9 -12 52 3
58 6 3 13 6 14 6 1 1 8 -2 17 -5z" fill="#00BFA6"/>
<path d="M964 1901 c-39 -24 -59 -76 -45 -114 16 -43 54 -61 112 -54 47 6 54
4 99 -30 59 -44 69 -81 39 -148 -16 -35 -25 -45 -44 -45 -28 0 -65 -43 -65
-75 0 -12 9 -34 21 -49 29 -37 89 -37 118 0 23 29 27 65 10 92 -14 22 23 112
46 112 23 0 55 37 55 65 0 36 -34 66 -73 64 -23 -2 -46 7 -79 31 -43 30 -48
38 -48 71 0 77 -81 121 -146 80z m95 -35 c6 -8 14 -30 16 -50 4 -32 2 -38 -21
-46 -14 -6 -34 -10 -45 -10 -25 0 -59 35 -59 60 0 47 80 81 109 46z m210 -200
c9 -11 8 -18 -5 -30 -23 -24 -48 -16 -52 17 -3 23 0 27 21 27 14 0 30 -6 36
-14z m-89 -202 c10 -26 -1 -63 -20 -65 -6 -1 -16 -2 -22 -3 -40 -6 -51 53 -16
78 32 22 47 20 58 -10z" fill="#00BFA6"/>
<path d="M1355 1395 c-14 -13 -25 -31 -25 -39 0 -46 51 -93 89 -82 11 4 28
-10 51 -41 27 -37 35 -56 35 -91 1 -74 62 -106 119 -61 35 27 35 71 0 106 -17
17 -33 24 -49 20 -20 -3 -32 5 -64 47 -32 42 -38 57 -34 84 11 70 -71 108
-122 57z m82 -27 c5 -7 8 -19 7 -25 -1 -7 -2 -18 -3 -24 -2 -16 -53 -6 -64 12
-6 9 -7 24 -4 33 7 19 50 21 64 4z m167 -214 c9 -8 16 -19 16 -23 0 -16 -29
-32 -52 -29 -18 2 -24 10 -26 36 -3 28 0 32 22 32 13 0 32 -7 40 -16z" fill="#00BFA6"/>
<path d="M515 805 l0 -165 33 0 32 0 0 165 0 165 -32 0 -33 0 0 -165z"/>
<path d="M232 814 c-18 -80 -36 -152 -39 -160 -4 -10 4 -14 30 -14 30 0 35 4
41 30 5 27 9 30 46 30 38 0 40 -2 40 -30 0 -28 2 -30 38 -30 l38 0 -33 138
c-18 75 -35 147 -38 160 -5 19 -12 22 -48 22 l-43 0 -32 -146z m93 -3 l13 -61
-30 0 c-27 0 -29 2 -24 28 3 15 8 44 12 65 8 48 13 43 29 -32z"/>
<path d="M1295 954 c-39 -11 -45 -32 -45 -160 0 -116 1 -124 22 -138 13 -10
43 -16 73 -16 79 0 95 17 95 101 l0 69 -45 0 c-38 0 -45 -3 -45 -20 0 -11 5
-20 10 -20 6 0 10 -18 10 -40 0 -36 -2 -40 -25 -40 l-25 0 0 110 0 110 25 0
c20 0 25 -5 25 -25 0 -22 4 -25 35 -25 32 0 35 3 35 28 0 45 -19 62 -75 67
-27 2 -59 1 -70 -1z"/>
<path d="M800 872 c0 -11 -3 -12 -14 -3 -8 7 -32 11 -53 9 l-38 -3 0 -105 0
-105 28 -9 c20 -7 34 -7 47 2 27 17 32 15 28 -10 -3 -20 -10 -23 -50 -26 -42
-3 -48 -6 -48 -26 0 -21 3 -22 68 -18 37 2 73 9 80 14 8 8 12 51 12 154 l0
143 -30 -1 c-19 -1 -30 -6 -30 -16z m-5 -102 c0 -60 -2 -65 -22 -68 -22 -3
-23 0 -23 61 0 68 5 79 30 75 12 -3 15 -18 15 -68z"/>
<path d="M1551 783 c16 -60 29 -111 29 -115 0 -5 7 -8 16 -8 28 0 11 -35 -19
-38 -21 -3 -27 -9 -27 -28 0 -21 4 -24 25 -19 14 3 36 7 49 10 28 6 37 26 71
168 32 137 32 137 -4 137 -33 0 -36 -5 -47 -90 -12 -96 -20 -100 -33 -15 -17
104 -18 105 -56 105 l-33 0 29 -107z"/>
<path d="M1855 882 c-40 -8 -45 -21 -45 -118 0 -71 4 -96 16 -108 18 -19 65
-21 82 -4 9 9 12 9 12 0 0 -7 14 -12 35 -12 l35 0 0 124 0 124 -35 -1 c-24 -1
-35 -6 -35 -16 0 -10 -3 -12 -8 -5 -10 14 -33 21 -57 16z m63 -120 c3 -67 1
-72 -18 -72 -18 0 -20 6 -20 76 0 66 2 75 18 72 14 -3 18 -16 20 -76z"/>
<path d="M2100 887 c-1 -1 -2 -57 -3 -125 l-2 -122 32 0 32 0 3 98 c3 89 5 97
23 97 19 0 20 -6 19 -97 l0 -98 33 0 33 0 0 109 c0 82 -4 111 -14 120 -20 17
-76 17 -87 0 -7 -12 -9 -11 -9 2 0 11 -10 16 -30 17 -16 0 -30 0 -30 -1z"/>
<path d="M982 868 c-8 -8 -12 -47 -12 -110 0 -113 4 -118 89 -118 75 0 91 20
91 114 0 41 -4 86 -10 100 -9 24 -14 26 -78 26 -40 0 -73 -5 -80 -12z m98
-103 c0 -73 -1 -75 -25 -75 -24 0 -25 2 -25 68 0 74 3 82 32 82 16 0 18 -9 18
-75z"/>
<path d="M810 350 l0 -70 40 0 c22 0 40 5 40 10 0 6 -11 10 -25 10 -18 0 -25
5 -25 20 0 13 7 20 20 20 11 0 20 5 20 10 0 6 -9 10 -20 10 -14 0 -20 7 -20
21 0 16 5 20 20 16 13 -3 20 0 20 9 0 9 -12 14 -35 14 l-35 0 0 -70z"/>
<path d="M1050 350 l0 -70 35 0 c19 0 35 5 35 10 0 6 -9 10 -20 10 -18 0 -20
7 -20 60 0 47 -3 60 -15 60 -12 0 -15 -14 -15 -70z"/>
<path d="M1170 350 l0 -70 41 0 c24 0 38 4 34 10 -3 6 -15 10 -26 10 -12 0
-19 7 -19 20 0 13 7 20 20 20 11 0 20 5 20 10 0 6 -9 10 -20 10 -14 0 -20 7
-20 21 0 16 5 20 20 16 13 -3 20 0 20 9 0 9 -12 14 -35 14 l-35 0 0 -70z"/>
<path d="M1308 350 c-11 -54 -12 -70 -2 -70 6 0 14 7 18 15 3 8 12 15 21 15 8
0 15 -7 15 -15 0 -8 7 -15 15 -15 17 0 18 3 6 50 -5 19 -12 47 -15 63 -4 17
-13 27 -24 27 -15 0 -22 -15 -34 -70z m42 0 c0 -16 -4 -30 -10 -30 -11 0 -14
43 -3 53 11 12 13 8 13 -23z"/>
<path d="M1448 350 c-2 -51 0 -70 10 -70 6 0 12 11 12 25 0 14 4 25 9 25 5 0
12 -11 15 -25 4 -14 13 -25 21 -25 18 0 18 5 4 32 -8 14 -8 23 0 31 15 15 14
50 -1 65 -7 7 -24 12 -39 12 -27 0 -27 -1 -31 -70z m52 25 c0 -16 -6 -25 -15
-25 -15 0 -21 31 -8 43 13 14 23 6 23 -18z"/>
<path d="M1588 351 c-2 -50 1 -71 9 -71 7 0 13 18 15 43 l3 42 14 -42 c22 -68
41 -56 41 27 0 58 -3 70 -16 70 -14 0 -15 -7 -10 -42 8 -47 -3 -44 -20 5 -19
55 -32 43 -36 -32z"/>
<path d="M937 354 c-11 -12 3 -24 29 -24 15 0 24 6 24 15 0 15 -40 21 -53 9z"/>
</g>
</svg>
